<svg width="38" height="24" viewBox="0 0 38 24" fill="none" xmlns="http://www.w3.org/2000/svg">
<path d="M19 18.8258C19 18.8258 24.32 18.7249 27.3 16.2446C30.28 13.7643 34.22 10.1145 37 9.28773C21.86 1.90734 19 6.40413 19 6.40413C19 6.40413 16.14 1.88717 1 9.28773C3.78 10.1145 7.72001 13.7643 10.7 16.2446C13.68 18.7048 19 18.8258 19 18.8258Z" stroke="white" stroke-miterlimit="10" stroke-linecap="round" stroke-linejoin="round"/>
<path d="M37 5.23458C36.04 4.77079 35.14 4.34733 34.28 3.9642" stroke="white" stroke-linecap="round" stroke-linejoin="round"/>
<path d="M30.8 2.59302C27.62 1.46378 25.26 1.06048 23.52 0.999985" stroke="white" stroke-linecap="round" stroke-linejoin="round" stroke-dasharray="2.8 2.8"/>
<path d="M21.6401 1.12099C19.5801 1.44363 18.9801 2.37122 18.9801 2.37122C18.9801 2.37122 18.3801 1.44363 16.3201 1.12099" stroke="white" stroke-linecap="round" stroke-linejoin="round"/>
<path d="M12.62 1.18142C10.78 1.44356 8.43996 2.06869 5.45996 3.25843" stroke="white" stroke-linecap="round" stroke-linejoin="round" stroke-dasharray="2.8 2.8"/>
<path d="M3.72003 3.98438C2.86003 4.36752 1.96 4.77083 1 5.25479" stroke="white" stroke-linecap="round" stroke-linejoin="round"/>
<path d="M1 13.462C1.8 13.7039 2.72005 14.1879 3.68005 14.813" stroke="white" stroke-linecap="round" stroke-linejoin="round"/>
<path d="M7.02002 17.3337C8.30002 18.3823 9.58001 19.4914 10.7 20.4189C13.68 22.8992 19 23.0001 19 23.0001C19 23.0001 24.32 22.8992 27.3 20.4189C28.9 19.0881 30.7801 17.4144 32.6201 16.023" stroke="white" stroke-linecap="round" stroke-linejoin="round" stroke-dasharray="3.14 3.14"/>
<path d="M34.3201 14.813C35.2801 14.1879 36.1801 13.7039 37.0001 13.4619" stroke="white" stroke-linecap="round" stroke-linejoin="round"/>
<path d="M37 9.28778C28.14 12.4134 19 11.9496 19 11.9496C19 11.9496 9.86 12.4134 1 9.28778" stroke="white" stroke-miterlimit="10" stroke-linecap="round" stroke-linejoin="round"/>
</svg>
