<svg width="34" height="38" viewBox="0 0 34 38" fill="none" xmlns="http://www.w3.org/2000/svg">
<path d="M14.1621 1C14.1621 1 11.6599 6.55691 6.7775 6.25708C1.89511 5.95724 2.64781 14.3126 2.52575 15.3121C2.40369 16.3115 1 19.03 1 21.7885" stroke="white" stroke-miterlimit="10" stroke-linecap="round" stroke-linejoin="round"/>
<path d="M5.84167 6.33701C5.84167 6.33701 6.81815 13.0733 6.81815 16.7912C6.81815 20.5091 8.46596 25.7662 8.52699 26.7257C8.58802 27.6852 8.83214 30.4836 8.01841 31.8628C7.20467 33.2421 6.96055 34.5413 6.96055 37" stroke="white" stroke-miterlimit="10" stroke-linecap="round" stroke-linejoin="round"/>
<path d="M6.83854 17.6108C6.83854 17.6108 6.51304 23.1677 4.39734 25.1266" stroke="white" stroke-miterlimit="10" stroke-linecap="round" stroke-linejoin="round"/>
<path d="M19.8379 1C19.8379 1 22.3401 6.55691 27.2225 6.25708C32.1049 5.95724 31.3522 14.3126 31.4743 15.3121C31.5963 16.3115 33 19.03 33 21.7885" stroke="white" stroke-miterlimit="10" stroke-linecap="round" stroke-linejoin="round"/>
<path d="M28.1786 6.33701C28.1786 6.33701 27.2021 13.0733 27.2021 16.7912C27.2021 20.5091 25.5543 25.7662 25.4933 26.7257C25.4322 27.6852 25.1881 30.4836 26.0018 31.8628C26.8156 33.2421 27.0597 34.5413 27.0597 37" stroke="white" stroke-miterlimit="10" stroke-linecap="round" stroke-linejoin="round"/>
<path d="M27.1614 17.6108C27.1614 17.6108 27.4869 23.1677 29.6026 25.1266" stroke="white" stroke-miterlimit="10" stroke-linecap="round" stroke-linejoin="round"/>
<path d="M12.0666 9.73586C12.4037 9.73586 12.6769 9.46723 12.6769 9.13586C12.6769 8.80449 12.4037 8.53586 12.0666 8.53586C11.7295 8.53586 11.4563 8.80449 11.4563 9.13586C11.4563 9.46723 11.7295 9.73586 12.0666 9.73586Z" fill="#0079AB"/>
<path d="M17.0101 4.63871C17.3471 4.63871 17.6204 4.37008 17.6204 4.03871C17.6204 3.70734 17.3471 3.43871 17.0101 3.43871C16.673 3.43871 16.3998 3.70734 16.3998 4.03871C16.3998 4.37008 16.673 4.63871 17.0101 4.63871Z" fill="#0079AB"/>
<path d="M22.0554 9.63581C22.3924 9.63581 22.6657 9.36718 22.6657 9.03581C22.6657 8.70444 22.3924 8.43581 22.0554 8.43581C21.7183 8.43581 21.4451 8.70444 21.4451 9.03581C21.4451 9.36718 21.7183 9.63581 22.0554 9.63581Z" fill="#0079AB"/>
<path d="M17.0507 14.653C17.3878 14.653 17.661 14.3844 17.661 14.053C17.661 13.7217 17.3878 13.453 17.0507 13.453C16.7137 13.453 16.4404 13.7217 16.4404 14.053C16.4404 14.3844 16.7137 14.653 17.0507 14.653Z" fill="#0079AB"/>
<path d="M11.9853 19.5503C12.3224 19.5503 12.5956 19.2817 12.5956 18.9503C12.5956 18.619 12.3224 18.3503 11.9853 18.3503C11.6482 18.3503 11.375 18.619 11.375 18.9503C11.375 19.2817 11.6482 19.5503 11.9853 19.5503Z" fill="#0079AB"/>
<path d="M22.0554 19.5503C22.3924 19.5503 22.6657 19.2817 22.6657 18.9503C22.6657 18.619 22.3924 18.3503 22.0554 18.3503C21.7183 18.3503 21.4451 18.619 21.4451 18.9503C21.4451 19.2817 21.7183 19.5503 22.0554 19.5503Z" fill="#0079AB"/>
<path d="M22.0554 29.5848C22.3924 29.5848 22.6657 29.3162 22.6657 28.9848C22.6657 28.6534 22.3924 28.3848 22.0554 28.3848C21.7183 28.3848 21.4451 28.6534 21.4451 28.9848C21.4451 29.3162 21.7183 29.5848 22.0554 29.5848Z" fill="#0079AB"/>
<path d="M11.9853 29.5848C12.3224 29.5848 12.5956 29.3162 12.5956 28.9848C12.5956 28.6534 12.3224 28.3848 11.9853 28.3848C11.6482 28.3848 11.375 28.6534 11.375 28.9848C11.375 29.3162 11.6482 29.5848 11.9853 29.5848Z" fill="#0079AB"/>
<path d="M17.0507 24.5876C17.3878 24.5876 17.661 24.319 17.661 23.9876C17.661 23.6562 17.3878 23.3876 17.0507 23.3876C16.7137 23.3876 16.4404 23.6562 16.4404 23.9876C16.4404 24.319 16.7137 24.5876 17.0507 24.5876Z" fill="#0079AB"/>
<path d="M17.0507 34.582C17.3878 34.582 17.661 34.3134 17.661 33.982C17.661 33.6507 17.3878 33.382 17.0507 33.382C16.7137 33.382 16.4404 33.6507 16.4404 33.982C16.4404 34.3134 16.7137 34.582 17.0507 34.582Z" fill="#0079AB"/>
</svg>
