<svg width="38" height="38" viewBox="0 0 38 38" fill="none" xmlns="http://www.w3.org/2000/svg">
<path d="M21.5613 1C21.5613 1 21.3613 3.82758 18.4822 9.22205C17.0826 11.8692 15.0232 15.1179 12.0442 18.9481C4.68643 28.3935 8.76514 33.6676 12.324 35.0313C15.883 36.3949 19.9417 34.3896 21.3613 34.0888C22.7609 33.788 26.3798 33.3468 28.979 35.6128C31.5782 37.8789 37.1564 37.9591 36.9964 31.3013" stroke="white" stroke-miterlimit="10" stroke-linecap="round" stroke-linejoin="round"/>
<path d="M15.6832 1C15.6832 1 15.4633 4.04818 12.3643 9.84372C10.8447 12.6914 8.6454 16.2008 5.42639 20.3118C0.227993 26.9897 0.327935 31.7224 2.08739 34.6102" stroke="white" stroke-miterlimit="10" stroke-linecap="round" stroke-linejoin="round" stroke-dasharray="3 3"/>
</svg>
