<svg width="38" height="37" viewBox="0 0 38 37" fill="none" xmlns="http://www.w3.org/2000/svg">
<path d="M2.55913 26.8774C0.480289 28.9718 0.480289 32.3348 2.55913 34.4292C4.63798 36.5235 7.97613 36.5235 10.055 34.4292" stroke="white" stroke-miterlimit="10" stroke-linecap="round" stroke-linejoin="round"/>
<path d="M2.55908 26.8774L25.1865 4.08114C24.4669 3.35617 24.5469 2.26871 25.2665 1.54374C25.6263 1.18125 26.106 1 26.5657 1C27.0455 1 27.5052 1.18125 27.865 1.54374L35.181 8.91427C35.9006 9.63924 35.9006 10.8073 35.181 11.5322C34.8212 11.8947 34.3414 12.0759 33.8817 12.0759C33.4219 12.0759 33.0222 11.9753 32.6624 11.6128L10.0349 34.4091" stroke="white" stroke-miterlimit="10" stroke-linecap="round" stroke-linejoin="round"/>
<path d="M14.6924 14.6737H29.6641" stroke="white" stroke-miterlimit="10" stroke-linecap="round" stroke-linejoin="round"/>
<path d="M33.8817 30.8044C35.6007 30.8044 37 29.3947 37 27.6628C37 27.0587 36.84 26.5754 36.6801 26.0518L36.86 26.6962C36.8001 26.4545 36.7201 26.2129 36.6401 25.9108C36.6401 25.9108 34.3814 20.0104 33.7817 20.0104C33.1621 20.0104 31.0433 26.0316 31.0433 26.0316C30.8834 26.5754 30.7834 27.0587 30.7834 27.6628C30.7634 29.3947 32.1627 30.8044 33.8817 30.8044ZM33.8817 30.8044C34.5014 30.8044 35.101 30.603 35.6007 30.2808" stroke="white" stroke-miterlimit="10" stroke-linecap="round" stroke-linejoin="round"/>
</svg>
