<svg width="38" height="36" viewBox="0 0 38 36" fill="none" xmlns="http://www.w3.org/2000/svg">
<path d="M13.6399 28.3203C15.3999 30.2365 17.5199 31.5476 18.9999 31.5476C20.6399 31.5476 22.7199 30.297 24.3999 28.4413" stroke="white" stroke-miterlimit="10" stroke-linecap="round" stroke-linejoin="round"/>
<path d="M27.5 21.4016C27.5 16.48 23.7 13.7569 19 13.7569C14.3 13.7569 10.5 16.5001 10.5 21.4016" stroke="white" stroke-miterlimit="10" stroke-linecap="round" stroke-linejoin="round"/>
<path d="M27.4199 20.2923C27.4199 20.2923 32.1799 13.7569 25.9399 9.23869" stroke="white" stroke-miterlimit="10" stroke-linecap="round" stroke-linejoin="round"/>
<path d="M10.58 20.1712C10.58 20.1712 7.75999 16.016 10.58 10.8321C13.4 5.64821 17.66 4.63969 19.78 4.45816C21.9 4.27662 25.52 4.98258 25.72 7.96785C25.92 10.9531 25.46 13.1316 22.22 14.3822" stroke="white" stroke-miterlimit="10" stroke-linecap="round" stroke-linejoin="round"/>
<path d="M10.7201 10.5901C10.7201 10.5901 8.54009 6.09206 13.8601 2.50166C19.1801 -1.08873 23.8801 2.56216 23.6201 5.10368" stroke="white" stroke-miterlimit="10" stroke-linecap="round" stroke-linejoin="round"/>
<path d="M20.6 9.84385C20.6 9.84385 14.9 7.86711 10.28 11.4373" stroke="white" stroke-miterlimit="10" stroke-linecap="round" stroke-linejoin="round"/>
<path d="M15.1799 32.5561V29.7725" stroke="white" stroke-miterlimit="10" stroke-linecap="round" stroke-linejoin="round"/>
<path d="M22.8401 29.7725V32.5561" stroke="white" stroke-miterlimit="10" stroke-linecap="round" stroke-linejoin="round"/>
<path d="M1 15.0681L2.2 27.9773C2.2 27.9773 2.8 32.0922 7.08 33.7059C11.36 35.3195 12.2 35.0775 12.88 34.7951C13.56 34.5127 14.18 33.0806 12.68 32.6166C11.18 32.1527 8.2 29.2078 7.72 28.7035C7.22 28.1992 7.08 25.5367 7.72 25.3148C8.36 25.0929 10.54 26.5452 11.88 26.2023C13.2 25.8393 13.3 25.0324 12.54 24.4677C11.78 23.9029 8.81999 22.3295 8.31999 22.3094C7.83999 22.2892 6.5 22.4909 6.5 22.4909L5.8 14.9471" stroke="white" stroke-miterlimit="10" stroke-linecap="round" stroke-linejoin="round"/>
<path d="M36.9999 15.0681L35.7999 27.9773C35.7999 27.9773 35.1999 32.0922 30.9199 33.7059C26.6399 35.3195 25.7999 35.0775 25.1199 34.7951C24.4399 34.5127 23.8199 33.0806 25.3199 32.6166C26.8199 32.1527 29.7999 29.2078 30.2799 28.7035C30.7799 28.1992 30.9199 25.5367 30.2799 25.3148C29.6399 25.0929 27.4599 26.5452 26.1199 26.2023C24.7799 25.8594 24.6999 25.0324 25.4599 24.4677C26.2199 23.9029 29.1799 22.3295 29.6799 22.3094C30.1599 22.2892 31.4999 22.4909 31.4999 22.4909L32.1999 14.9471" stroke="white" stroke-miterlimit="10" stroke-linecap="round" stroke-linejoin="round"/>
</svg>
