<svg width="38" height="38" viewBox="0 0 38 38" fill="none" xmlns="http://www.w3.org/2000/svg">
<path d="M1 26.0451L6.10155 24.0891C9.08245 22.9397 12.4034 23.0607 15.3043 24.4521L23.4668 28.344C24.4471 28.8078 24.8672 29.9976 24.4271 30.9856C24.007 31.9132 22.9667 32.377 22.0064 32.0544L14.7242 29.7757" stroke="white" stroke-miterlimit="10" stroke-linecap="round" stroke-linejoin="round"/>
<path d="M1 36.4707L4.10095 34.313C6.06154 32.9418 8.5623 32.6594 10.763 33.5265L18.7654 36.6522C20.4059 37.2975 22.2664 37.0353 23.6468 35.9464L36.1106 26.2872C37.1109 25.521 37.291 24.0892 36.5307 23.081C35.8105 22.1332 34.4901 21.9114 33.5098 22.5567L23.987 28.7273" stroke="white" stroke-miterlimit="10" stroke-linecap="round" stroke-linejoin="round"/>
<path d="M22.0464 22.1735H18.6454V2.714C18.6454 1.76623 19.4056 1 20.3459 1C21.2862 1 22.0464 1.76623 22.0464 2.714V22.1735Z" stroke="white" stroke-miterlimit="10" stroke-linecap="round" stroke-linejoin="round"/>
<path d="M22.0464 4.26672L24.4071 4.12554C24.7872 4.10538 25.1673 4.18601 25.5074 4.34733L28.8284 6.0009" stroke="white" stroke-miterlimit="10" stroke-linecap="round" stroke-linejoin="round"/>
<path d="M31.5292 14.3089C31.5292 16.3053 29.9288 17.9387 27.9482 17.9387C25.9676 17.9387 24.3671 16.3255 24.3671 14.3089L25.4274 11.748" stroke="white" stroke-miterlimit="10" stroke-linecap="round" stroke-linejoin="round"/>
<path d="M31.5293 14.3091H24.3472L25.4075 11.7481L27.9483 5.57755L30.469 11.7481L31.5293 14.3091Z" stroke="white" stroke-miterlimit="10" stroke-linecap="round" stroke-linejoin="round"/>
<path d="M16.2847 10.9817C16.2847 12.9781 14.6843 14.6115 12.7037 14.6115C10.7231 14.6115 9.12256 12.9983 9.12256 10.9817L10.1829 8.42078" stroke="white" stroke-miterlimit="10" stroke-linecap="round" stroke-linejoin="round"/>
<path d="M16.2847 10.9818H9.12256L10.1629 8.4208L12.7037 2.25024L15.2444 8.4208L16.2847 10.9818Z" stroke="white" stroke-miterlimit="10" stroke-linecap="round" stroke-linejoin="round"/>
<path d="M18.6452 3.41977L17.0247 2.31071C16.7446 2.10905 16.4045 2.00824 16.0444 2.00824H11.323" stroke="white" stroke-miterlimit="10" stroke-linecap="round" stroke-linejoin="round"/>
</svg>
